<?xml version="1.0" standalone="no"?>
<!DOCTYPE svg PUBLIC "-//W3C//DTD SVG 20010904//EN"
 "http://www.w3.org/TR/2001/REC-SVG-20010904/DTD/svg10.dtd">
<svg version="1.0" xmlns="http://www.w3.org/2000/svg"
 width="1521.000000pt" height="1634.000000pt" viewBox="0 0 1521.000000 1634.000000"
 preserveAspectRatio="xMidYMid meet">

<g transform="translate(0.000000,1634.000000) scale(0.100000,-0.100000)"
fill="#000000" stroke="none">
<path d="M11467 16212 c-37 -21 -53 -38 -72 -79 -14 -28 -27 -66 -28 -83 -2
-17 -12 -37 -22 -44 -13 -9 -19 -25 -18 -50 1 -29 -6 -44 -38 -77 -30 -31 -39
-49 -39 -75 0 -23 -10 -48 -27 -71 -17 -22 -26 -46 -25 -63 2 -28 -10 -46 -50
-74 -16 -12 -21 -25 -21 -60 1 -30 -4 -46 -13 -50 -8 -3 -23 -25 -33 -48 -10
-24 -28 -52 -40 -62 -11 -11 -21 -29 -21 -41 0 -12 -9 -30 -20 -40 -11 -10
-22 -33 -26 -51 -3 -19 -10 -37 -15 -39 -4 -3 -6 -12 -3 -19 3 -7 -2 -16 -10
-19 -9 -4 -16 -12 -16 -19 0 -7 -9 -19 -20 -26 -14 -8 -20 -23 -20 -46 0 -25
-7 -38 -26 -50 -15 -10 -24 -25 -22 -36 2 -10 -9 -29 -24 -44 -16 -14 -28 -36
-28 -49 0 -34 -22 -76 -43 -83 -18 -6 -19 -22 -1 -67 3 -10 -8 -25 -31 -43
-28 -21 -36 -33 -32 -51 3 -15 -1 -23 -9 -23 -8 0 -14 -4 -14 -10 0 -5 7 -7
15 -4 28 11 16 -24 -12 -38 -17 -8 -29 -23 -31 -37 -2 -14 -10 -34 -18 -46 -8
-13 -11 -30 -8 -40 5 -11 1 -22 -9 -30 -11 -8 -18 -33 -22 -78 -7 -75 -27
-132 -50 -140 -9 -4 -15 -19 -15 -36 0 -17 -6 -34 -13 -38 -26 -15 -35 -47
-30 -105 7 -71 -12 -80 -22 -10 -4 26 -16 63 -28 82 -42 71 -143 189 -162 190
-5 1 -26 14 -45 30 -22 19 -45 30 -65 30 -18 0 -35 7 -41 18 -10 15 -44 28
-144 51 -19 5 -94 9 -167 10 -126 2 -132 1 -138 -19 -5 -15 -12 -19 -23 -15
-40 17 -54 16 -95 -4 -24 -12 -50 -21 -59 -21 -8 0 -26 -8 -39 -18 -13 -10
-45 -26 -70 -35 -25 -10 -56 -29 -69 -42 -13 -14 -30 -25 -39 -25 -8 0 -60
-22 -115 -49 -155 -75 -182 -84 -219 -78 -48 8 -132 69 -162 118 -5 9 -38 53
-72 98 -35 45 -63 85 -63 90 0 10 -93 82 -130 101 -13 7 -33 23 -42 35 -10 13
-33 26 -52 29 -19 4 -39 13 -46 21 -7 8 -28 15 -47 15 -19 0 -44 5 -56 12 -12
6 -66 13 -120 14 -95 2 -99 1 -107 -22 -11 -27 -13 -28 -39 -13 -19 13 -79 -1
-191 -43 -60 -23 -170 -86 -170 -98 0 -4 -12 -11 -26 -14 -31 -8 -79 -42 -145
-102 -25 -22 -65 -54 -90 -70 -24 -15 -57 -39 -72 -51 -15 -12 -45 -30 -65
-39 -20 -9 -49 -22 -64 -30 -67 -36 -163 -2 -236 83 -25 29 -55 56 -66 59 -12
4 -38 21 -58 38 -61 51 -205 117 -268 121 -19 2 -54 12 -77 24 -35 18 -58 21
-150 20 -109 -2 -217 -19 -236 -38 -6 -6 -21 -11 -33 -11 -13 0 -26 -4 -29
-10 -3 -5 -17 -10 -31 -10 -13 0 -33 -9 -44 -20 -11 -11 -27 -20 -36 -20 -20
0 -104 -49 -104 -61 0 -5 -24 -25 -53 -43 -67 -44 -120 -103 -114 -127 4 -13
-5 -24 -29 -38 -19 -11 -34 -25 -34 -30 0 -5 -23 -44 -50 -86 -54 -80 -92
-111 -150 -121 -19 -3 -48 -12 -63 -20 -22 -12 -31 -13 -42 -4 -9 7 -54 12
-120 12 -58 0 -108 5 -111 10 -4 5 -32 8 -63 7 -32 -2 -66 2 -79 9 -17 10 -32
10 -63 2 -22 -6 -49 -8 -60 -5 -11 4 -30 0 -44 -9 -13 -9 -38 -16 -55 -16 -40
0 -210 -85 -287 -144 -34 -25 -75 -63 -91 -84 -64 -78 -100 -130 -107 -153 -4
-13 -21 -49 -36 -80 -16 -31 -29 -68 -29 -82 0 -13 -7 -41 -15 -60 -8 -20 -15
-52 -15 -70 0 -38 -18 -86 -50 -132 -11 -16 -20 -37 -20 -45 0 -26 -83 -106
-129 -124 -34 -13 -70 -16 -175 -14 -87 1 -138 -2 -153 -10 -16 -9 -29 -9 -50
-1 -22 8 -30 7 -40 -6 -6 -10 -17 -14 -23 -10 -16 10 -150 -60 -180 -94 -3 -3
-31 -26 -62 -50 -40 -30 -58 -50 -58 -66 0 -12 -9 -30 -20 -40 -11 -10 -20
-28 -20 -40 0 -13 -6 -28 -14 -34 -23 -19 -57 -91 -67 -141 -4 -25 -14 -72
-22 -105 -8 -36 -12 -106 -11 -175 2 -63 3 -131 3 -150 -1 -19 -1 -45 0 -57 2
-48 1 -59 -5 -103 -8 -62 -43 -104 -101 -125 -27 -9 -57 -21 -68 -26 -11 -4
-49 -15 -85 -24 -102 -25 -178 -55 -220 -87 -56 -43 -124 -115 -137 -145 -7
-18 -17 -33 -22 -33 -11 0 -31 -47 -31 -74 0 -13 -9 -35 -20 -49 -18 -22 -20
-40 -20 -151 0 -119 3 -140 42 -276 52 -185 35 -306 -50 -349 -23 -11 -43 -25
-47 -31 -3 -5 -17 -10 -30 -10 -13 0 -37 -11 -53 -25 -16 -14 -52 -35 -78 -47
-53 -25 -204 -166 -204 -190 0 -8 -9 -23 -20 -33 -11 -10 -20 -25 -20 -33 0
-7 -9 -26 -20 -42 -17 -24 -20 -45 -20 -156 -1 -119 10 -187 33 -210 4 -4 7
-23 7 -42 0 -38 40 -131 65 -152 8 -7 15 -21 15 -31 0 -10 4 -21 10 -24 5 -3
10 -15 10 -26 0 -10 5 -19 10 -19 6 0 10 -4 10 -10 0 -5 16 -44 35 -86 50
-108 46 -135 -25 -175 -22 -13 -40 -26 -40 -31 0 -4 -25 -20 -56 -35 -31 -15
-69 -44 -86 -65 -16 -21 -35 -38 -42 -38 -24 0 -76 -67 -112 -145 l-37 -80 1
-140 c0 -126 3 -148 27 -215 26 -72 68 -172 83 -196 32 -53 108 -156 132 -179
36 -34 36 -41 5 -80 -22 -26 -27 -28 -44 -18 -11 7 -23 9 -26 4 -6 -11 -87
-51 -102 -51 -5 0 -18 -9 -27 -19 -10 -11 -27 -21 -39 -23 -11 -2 -28 -19 -40
-40 -13 -26 -26 -38 -40 -38 -26 0 -87 -60 -87 -84 0 -9 -8 -16 -18 -16 -26 0
-53 -32 -61 -72 -5 -22 -16 -37 -33 -46 -14 -7 -31 -25 -36 -41 -6 -16 -20
-39 -32 -51 -15 -15 -20 -29 -16 -44 4 -16 -2 -30 -19 -46 -14 -13 -23 -30
-20 -37 2 -8 -2 -16 -10 -19 -8 -4 -15 -18 -15 -33 0 -14 -9 -39 -20 -56 -11
-16 -20 -42 -20 -58 0 -15 -5 -37 -12 -50 -6 -12 -15 -30 -20 -39 -4 -10 -8
-38 -8 -62 0 -25 -4 -48 -10 -51 -5 -3 -10 -19 -10 -35 0 -16 -5 -41 -12 -55
-9 -20 -8 -31 2 -50 10 -20 11 -28 2 -37 -15 -15 -17 -198 -2 -198 6 0 10 -9
10 -19 0 -11 5 -23 10 -26 18 -11 11 -64 -10 -75 -17 -9 -18 -14 -9 -31 6 -12
9 -29 6 -38 -5 -21 5 -85 26 -161 8 -30 17 -68 19 -85 2 -21 11 -34 31 -43 26
-13 27 -15 14 -36 -13 -19 -13 -26 -1 -47 7 -13 13 -30 14 -37 0 -21 129 -295
161 -342 9 -14 30 -47 47 -75 51 -82 85 -125 99 -125 7 0 13 -6 13 -14 0 -8
14 -28 30 -46 17 -18 42 -46 56 -64 57 -70 250 -256 265 -256 10 0 40 -22 69
-50 29 -27 58 -50 66 -50 8 0 14 -4 14 -8 0 -5 12 -15 28 -23 15 -7 52 -30 82
-50 84 -56 127 -72 212 -75 93 -5 133 7 125 37 -3 11 0 42 7 68 7 29 9 56 4
67 -21 47 -46 79 -64 80 -33 2 -117 48 -159 87 -22 21 -53 45 -70 54 -16 9
-51 37 -77 63 -26 27 -56 51 -67 55 -12 3 -21 11 -21 17 0 20 -71 98 -90 98
-30 0 -50 11 -50 29 0 9 -9 30 -20 46 -11 17 -30 45 -41 63 -12 17 -27 32 -35
32 -7 0 -20 16 -28 35 -8 19 -26 47 -41 62 -14 16 -23 34 -20 42 3 8 -4 20
-15 28 -11 8 -20 19 -20 24 0 6 -9 22 -20 36 -11 14 -20 33 -20 42 0 10 -13
38 -30 64 -16 26 -30 60 -30 75 0 37 -30 112 -45 112 -9 0 -13 19 -14 64 0 44
-6 74 -20 97 -14 25 -20 53 -20 109 0 41 -5 107 -10 145 -13 86 -14 199 -2
223 16 33 31 89 31 120 0 17 5 34 10 37 8 5 8 11 1 19 -13 15 -3 54 20 85 10
12 22 39 25 60 4 20 27 76 51 125 23 49 43 96 43 103 0 8 13 22 30 31 18 10
30 25 30 38 0 26 57 84 82 84 10 0 23 9 30 20 7 11 23 20 35 20 11 0 33 14 46
30 16 18 35 30 51 30 13 0 26 5 28 12 2 6 13 12 24 13 10 1 26 5 34 8 8 3 33
8 55 12 22 3 58 12 80 20 22 7 65 14 95 15 30 1 69 3 85 4 17 1 37 -3 45 -10
11 -10 26 -10 59 -3 36 8 48 6 74 -10 22 -13 43 -17 66 -14 43 7 50 -6 38 -66
-7 -39 -6 -55 8 -85 10 -21 14 -43 10 -53 -10 -23 -17 -513 -9 -533 8 -18 12
-55 18 -180 2 -52 7 -103 11 -112 3 -9 2 -25 -3 -35 -7 -11 -7 -25 -1 -35 15
-27 20 -140 8 -171 -9 -20 -9 -31 0 -41 7 -8 14 -55 16 -105 2 -50 7 -95 10
-101 9 -15 15 -93 15 -180 -1 -48 5 -89 15 -113 9 -21 18 -72 20 -113 3 -42
11 -84 19 -96 11 -15 12 -26 4 -44 -8 -17 -7 -32 3 -56 8 -18 12 -39 11 -46
-2 -8 4 -25 13 -39 9 -13 14 -32 10 -41 -8 -20 14 -159 30 -192 7 -14 10 -31
8 -38 -3 -7 2 -24 11 -37 9 -13 16 -44 16 -68 0 -27 6 -49 15 -57 9 -7 12 -22
9 -39 -4 -17 4 -55 19 -98 14 -39 30 -103 36 -142 5 -40 14 -78 19 -84 6 -7
19 -47 30 -90 11 -43 28 -87 38 -98 12 -13 17 -33 16 -58 -2 -24 3 -45 13 -54
8 -9 15 -29 15 -46 0 -16 5 -33 10 -36 6 -3 10 -16 10 -28 0 -13 7 -32 15 -44
8 -11 29 -65 46 -119 17 -55 44 -126 59 -159 16 -33 32 -81 35 -107 3 -27 12
-49 20 -52 8 -3 15 -12 15 -20 0 -8 11 -32 25 -52 14 -20 25 -47 25 -60 0 -12
4 -25 9 -29 5 -3 17 -29 26 -58 10 -28 30 -69 46 -89 16 -20 34 -58 41 -85 7
-26 20 -60 30 -74 10 -15 22 -37 28 -50 16 -35 51 -98 84 -148 16 -25 38 -68
49 -95 11 -28 30 -60 42 -71 13 -11 39 -54 59 -95 45 -90 81 -150 130 -214 20
-26 36 -54 36 -62 0 -8 7 -14 15 -14 9 0 15 -9 15 -23 0 -13 13 -36 30 -52 16
-16 30 -34 30 -41 0 -7 8 -19 19 -26 10 -7 39 -46 64 -85 26 -40 51 -73 56
-73 6 0 18 -16 27 -36 9 -20 41 -60 71 -89 29 -30 53 -57 53 -60 0 -4 6 -12
12 -20 7 -7 29 -36 48 -64 19 -27 43 -50 52 -51 9 0 20 -9 23 -21 7 -20 42
-64 78 -98 10 -9 32 -32 50 -51 83 -90 255 -255 282 -270 17 -9 37 -31 45 -48
15 -31 90 -87 126 -94 11 -2 22 -17 28 -36 5 -19 15 -32 26 -32 9 0 26 -13 38
-30 13 -16 29 -30 36 -30 7 0 19 -7 26 -15 7 -8 21 -15 31 -15 10 0 25 -13 34
-30 9 -17 24 -30 33 -30 10 0 31 -14 47 -30 16 -17 34 -30 40 -30 6 0 22 -12
36 -26 13 -14 40 -33 59 -42 19 -9 58 -33 85 -54 28 -21 54 -38 59 -38 4 0 17
-11 28 -25 13 -17 26 -24 37 -20 11 3 25 -3 36 -15 10 -11 25 -20 33 -20 8 0
30 -14 49 -30 18 -17 39 -30 45 -30 6 0 26 -11 44 -25 18 -14 55 -29 81 -34
30 -6 53 -17 62 -30 7 -12 22 -21 32 -21 10 0 30 -11 45 -25 15 -14 31 -25 35
-25 5 0 32 -11 61 -24 65 -29 100 -41 114 -38 6 1 17 -5 24 -13 7 -8 21 -15
31 -15 10 0 21 -5 25 -11 3 -6 15 -8 26 -5 12 2 27 -1 34 -9 7 -7 45 -22 83
-34 38 -12 71 -26 73 -31 2 -6 34 -12 72 -15 43 -3 75 -10 86 -20 10 -9 35
-19 56 -22 22 -3 41 -9 44 -13 3 -4 50 -17 105 -29 55 -12 114 -26 131 -31 17
-6 48 -10 70 -10 22 0 44 -4 50 -9 9 -9 68 -16 224 -26 47 -3 94 -10 105 -16
11 -5 76 -7 145 -5 69 3 132 5 140 5 8 1 51 -1 95 -3 48 -2 85 0 93 7 8 6 16
7 20 1 9 -12 91 -12 100 1 4 6 48 10 99 10 50 1 102 6 115 12 32 16 77 22 84
12 11 -18 35 -8 44 17 8 19 14 23 23 16 24 -19 76 -22 85 -5 7 12 27 16 81 18
40 1 77 7 84 14 6 6 28 11 48 11 21 0 41 5 44 10 3 6 20 10 36 10 16 0 46 7
66 15 19 8 49 15 65 15 22 0 31 6 35 21 4 16 11 19 29 15 12 -3 26 -2 29 4 3
5 16 10 28 10 12 0 40 7 62 14 31 11 41 20 43 40 4 31 13 33 30 6 16 -26 42
-26 49 0 3 11 11 20 19 20 7 0 18 9 24 20 8 16 21 20 59 20 46 0 104 20 116
41 4 5 17 9 31 9 14 0 43 9 65 20 31 16 39 25 34 40 -3 10 -1 21 5 25 6 3 10
-3 10 -14 0 -24 9 -26 43 -10 18 8 27 22 31 49 5 35 9 39 36 38 18 -1 30 -6
30 -15 0 -15 26 -18 35 -3 10 16 83 60 99 60 8 0 28 11 44 25 17 14 35 25 41
25 6 0 11 5 11 10 0 6 9 10 20 10 14 0 18 5 13 17 -5 12 -2 15 10 10 20 -8 61
13 103 52 18 17 38 31 44 31 7 0 40 25 75 55 34 30 69 55 76 55 8 0 20 9 27
20 7 12 17 18 22 15 14 -8 80 54 80 76 0 10 -4 19 -10 19 -5 0 -10 5 -10 10 0
19 32 10 37 -10 7 -25 22 -26 29 -2 9 29 21 47 30 47 13 0 84 72 84 85 0 6 8
9 18 6 21 -7 88 40 95 66 3 10 13 18 22 18 17 0 64 48 65 67 0 6 22 25 50 42
27 17 57 43 67 58 10 15 32 41 48 56 74 69 115 113 126 137 23 51 26 55 43 58
9 2 32 19 50 37 25 25 33 40 30 62 -2 15 -1 20 2 10 3 -9 9 -17 13 -17 4 0 38
33 74 74 44 49 67 83 67 99 0 15 9 31 25 41 37 24 75 69 75 88 0 10 14 27 30
40 34 25 36 33 15 55 -19 18 -4 43 26 43 11 0 19 5 19 10 0 6 11 15 24 21 14
7 22 17 19 25 -3 8 -1 14 4 14 29 0 93 84 93 121 0 11 4 19 9 19 5 0 11 12 13
27 2 18 10 29 25 33 22 5 61 61 126 184 18 32 37 66 42 75 6 9 20 33 33 52 12
20 22 46 22 58 0 12 11 32 23 44 35 33 51 67 52 111 0 31 4 40 20 42 22 3 47
32 39 46 -3 5 -3 22 1 38 5 21 13 30 26 30 14 0 19 7 19 25 0 14 4 25 10 25 5
0 7 13 4 29 -5 23 -2 32 17 41 22 12 22 13 3 27 -11 9 -14 17 -8 19 6 3 27 20
47 38 31 28 37 41 37 73 0 21 5 44 12 51 7 7 8 12 4 12 -5 0 -1 12 9 26 12 19
15 37 11 66 -6 37 -5 40 24 51 16 6 30 17 30 23 0 6 9 23 21 38 20 25 20 28 4
46 -15 17 -15 21 10 70 15 29 35 54 44 57 13 3 20 18 24 46 4 23 15 60 27 82
22 42 26 80 10 90 -18 11 -11 25 13 25 25 0 38 24 58 103 6 26 15 49 18 52 4
2 6 40 5 83 -2 76 -1 80 22 91 14 6 33 11 43 11 10 0 26 9 36 20 10 11 24 20
32 20 19 0 90 37 143 75 25 17 60 38 79 45 18 7 59 32 90 54 31 23 67 49 81
58 14 8 35 24 47 34 12 11 34 28 48 39 15 11 40 32 55 47 16 16 33 28 37 28 8
0 91 64 128 99 11 10 52 44 90 76 92 76 305 293 305 311 0 8 3 14 8 14 4 1 23
24 42 52 19 28 43 58 53 66 9 9 17 23 17 32 0 9 13 31 30 50 16 19 29 41 30
48 0 7 11 30 25 52 14 22 25 43 25 47 0 3 7 14 15 23 8 9 38 73 66 141 27 68
54 128 60 133 5 6 9 22 9 37 0 15 7 40 15 55 8 16 15 40 15 54 0 14 7 36 16
48 9 14 14 33 10 46 -3 13 1 41 10 61 8 20 13 42 11 48 -2 7 0 20 4 29 5 9 12
61 15 115 3 54 7 120 9 148 2 27 -1 58 -7 68 -6 13 -6 23 2 33 15 17 5 127
-16 187 -8 22 -14 67 -14 100 0 43 -6 69 -21 93 -12 20 -18 42 -14 53 6 19
-55 192 -79 221 -6 8 -17 27 -24 43 -27 62 -36 77 -44 77 -4 0 -8 6 -8 13 0 7
-13 28 -30 47 -16 19 -29 42 -30 51 0 9 -9 24 -20 34 -11 10 -20 22 -20 28 0
5 -25 35 -55 65 -30 31 -55 63 -55 72 0 9 -11 27 -25 40 l-25 23 50 46 c28 26
50 52 50 59 0 12 4 21 32 74 6 13 12 66 14 118 1 52 5 107 9 123 5 19 1 41
-14 72 -12 25 -20 59 -20 77 2 38 -25 114 -50 143 -9 11 -30 39 -46 63 -16 24
-36 47 -46 52 -9 5 -19 21 -23 34 -3 14 -21 35 -39 48 -41 29 -49 37 -66 70
-12 24 -12 32 4 65 10 21 39 59 64 84 56 56 131 148 131 160 0 5 16 32 35 59
19 27 35 57 35 66 0 8 5 25 12 37 10 18 15 76 19 202 0 11 -5 45 -11 75 -7 30
-12 64 -11 74 0 11 -13 36 -29 57 -17 20 -30 47 -30 59 0 25 -86 119 -127 140
-15 8 -36 20 -45 28 -23 19 -109 62 -124 62 -7 0 -29 8 -51 19 -46 22 -187 72
-225 78 -15 3 -35 14 -44 24 -9 10 -25 19 -35 19 -16 0 -18 8 -15 78 2 46 11
92 20 110 9 17 16 39 16 49 0 10 9 29 20 43 11 14 20 30 20 36 0 15 29 72 41
79 13 9 54 101 83 191 15 44 32 95 38 114 16 47 14 276 -2 326 -7 22 -24 49
-36 61 -13 12 -24 32 -24 43 0 40 -98 149 -163 180 -23 11 -60 33 -82 49 -22
17 -60 35 -85 41 -25 6 -55 14 -68 17 -13 3 -33 0 -46 -6 -18 -10 -30 -8 -70
8 -26 12 -62 21 -80 21 -18 0 -37 5 -42 10 -6 6 -29 12 -52 14 -47 4 -86 26
-103 57 -17 32 -6 140 20 189 11 22 21 51 21 64 0 13 7 43 15 67 9 24 15 58
13 74 -1 17 1 35 5 41 10 17 0 203 -12 218 -6 8 -9 20 -5 29 3 8 0 25 -6 37
-6 12 -13 36 -16 52 -7 59 -73 135 -159 183 -34 19 -71 35 -83 35 -11 0 -23 4
-26 9 -7 10 -51 19 -148 29 -36 4 -70 10 -73 14 -4 4 3 21 16 37 13 16 38 46
54 67 18 22 33 55 37 82 4 24 14 52 23 61 9 11 14 32 13 51 -3 28 1 35 22 40
15 4 23 12 21 21 -13 47 -12 71 5 90 10 11 19 37 20 57 10 171 17 218 35 238
19 20 19 21 -6 42 -28 25 -32 42 -10 42 12 0 15 14 15 63 0 35 5 68 11 74 8 8
5 14 -10 22 -25 14 -27 36 -6 57 18 18 10 74 -14 91 -44 33 -45 36 -22 54 11
9 21 24 21 33 0 22 -22 68 -42 88 -14 14 -18 35 -18 87 0 62 -3 72 -24 89 -20
15 -25 30 -30 85 -3 42 -10 73 -20 83 -25 25 -36 51 -30 69 4 9 -1 23 -9 33
-22 24 -58 118 -68 175 -4 26 -14 54 -22 61 -8 8 -19 29 -26 48 -23 60 -53
132 -72 171 -11 22 -19 45 -19 52 0 7 -13 39 -30 70 -16 31 -30 64 -30 74 0 9
-13 41 -30 71 -16 30 -29 61 -30 68 0 8 -13 42 -29 77 -16 34 -44 105 -61 156
-17 52 -39 112 -49 134 -10 22 -23 59 -31 83 -7 23 -17 42 -22 42 -4 0 -8 10
-8 23 0 12 -14 45 -30 72 -16 28 -30 58 -30 68 0 14 -51 120 -63 134 -1 0 -18
3 -37 6 -26 4 -47 -2 -83 -21z m78 -687 c4 -22 15 -63 26 -92 10 -29 21 -75
23 -104 3 -28 12 -61 20 -74 9 -14 16 -35 16 -48 0 -13 9 -33 20 -45 11 -12
20 -30 20 -41 0 -11 5 -23 11 -27 6 -3 9 -27 7 -53 -3 -44 13 -94 53 -173 5
-10 9 -33 9 -53 0 -19 9 -50 20 -70 11 -20 20 -44 20 -55 0 -10 5 -22 10 -25
6 -3 10 -25 10 -48 0 -23 7 -51 15 -61 8 -11 15 -39 15 -62 0 -26 11 -68 29
-106 32 -68 39 -93 50 -178 4 -30 12 -64 18 -75 6 -11 7 -29 3 -40 -7 -19 4
-82 20 -120 5 -11 12 -81 14 -155 6 -147 -13 -312 -41 -363 -8 -16 -13 -39
-10 -53 2 -15 -3 -30 -14 -40 -10 -9 -21 -29 -24 -45 -4 -16 -13 -32 -20 -37
-8 -4 -21 -27 -29 -50 -14 -40 -46 -85 -106 -152 -14 -15 -51 -58 -84 -94 -32
-36 -63 -66 -69 -66 -6 0 -20 -8 -31 -18 -12 -10 -54 -33 -95 -52 -66 -29 -85
-33 -165 -34 -115 -1 -203 15 -260 49 -56 33 -156 139 -156 166 0 10 -4 19
-10 19 -5 0 -10 12 -10 26 0 18 -6 28 -21 31 -19 5 -21 11 -15 54 4 30 3 50
-5 54 -6 4 -9 24 -8 44 4 42 -9 119 -21 126 -5 3 -4 17 0 33 26 83 45 298 28
309 -18 10 -7 65 17 87 14 13 25 34 25 48 0 13 4 28 9 34 15 16 21 100 8 113
-8 8 -6 15 11 27 12 8 22 23 22 33 0 9 7 26 15 37 8 10 15 28 15 39 0 11 7 38
14 60 9 25 11 44 5 51 -13 16 1 74 17 74 8 0 14 8 14 18 0 10 4 22 8 27 14 16
52 116 52 137 0 17 57 164 81 210 5 10 9 27 9 37 0 11 5 23 10 26 6 3 10 13
10 21 0 8 9 34 20 56 11 23 20 49 20 58 0 22 26 75 45 90 8 7 15 24 15 39 0
14 9 37 20 51 11 14 20 32 20 41 0 8 11 39 25 67 14 29 25 59 25 68 0 10 11
40 25 68 30 63 75 197 75 225 0 11 4 22 9 25 4 3 11 22 14 42 3 20 12 43 19
51 10 13 16 5 35 -53 12 -38 25 -87 28 -109z m-3997 -4436 c27 -22 60 -39 77
-39 8 0 25 -14 37 -31 13 -17 43 -46 68 -64 25 -18 59 -52 75 -74 17 -24 41
-44 56 -47 15 -4 32 -17 38 -31 8 -16 17 -23 27 -19 8 3 32 -5 52 -19 20 -14
45 -25 56 -25 11 0 27 -7 37 -16 10 -9 39 -18 66 -20 26 -2 66 -8 88 -13 23
-6 63 -8 89 -6 28 3 55 0 62 -6 10 -8 18 -8 27 -1 7 6 41 14 77 18 36 4 81 15
100 25 19 11 43 19 53 19 27 0 124 48 154 76 15 14 32 23 39 20 6 -2 37 18 67
45 30 27 58 49 62 49 3 0 18 14 32 30 13 17 30 30 37 30 7 0 21 9 31 20 10 11
26 20 37 20 10 0 18 6 18 14 0 8 7 17 16 20 26 10 142 7 149 -4 3 -5 14 -10
23 -10 9 0 32 -13 51 -29 19 -17 38 -28 42 -25 5 2 28 -16 53 -41 25 -25 48
-45 52 -45 4 0 24 -16 45 -35 22 -19 45 -35 52 -35 8 0 19 -11 25 -25 8 -16
20 -25 35 -25 13 0 33 -9 45 -20 12 -11 30 -20 42 -20 11 0 20 -7 20 -15 0
-11 11 -15 43 -15 24 0 47 -4 53 -9 16 -16 81 -30 91 -20 6 6 26 6 53 0 27 -6
52 -6 68 0 14 5 32 7 40 4 8 -3 22 1 31 9 23 21 61 10 61 -18 0 -11 4 -28 9
-35 6 -10 5 -23 -2 -35 -15 -29 -16 -57 -4 -81 6 -11 10 -37 8 -58 -2 -41 15
-102 36 -128 7 -8 13 -20 13 -26 0 -31 93 -193 111 -193 11 0 38 -23 86 -72
19 -20 48 -40 64 -43 16 -4 31 -11 34 -16 4 -5 15 -9 26 -9 10 0 28 -9 40 -21
13 -13 28 -19 42 -15 12 2 31 -2 41 -10 11 -8 30 -14 42 -14 13 0 26 -4 29
-10 3 -5 17 -10 31 -10 13 0 29 -9 36 -20 7 -11 21 -20 30 -20 10 0 18 -4 18
-10 0 -5 7 -10 15 -10 20 0 72 -55 92 -98 14 -30 15 -43 4 -96 -7 -33 -12 -74
-12 -90 0 -15 -7 -42 -15 -58 -9 -16 -13 -32 -10 -36 3 -3 2 -10 -3 -16 -12
-14 -17 -128 -7 -145 5 -7 1 -20 -8 -30 -20 -22 -20 -50 -1 -79 11 -15 14 -32
9 -57 -3 -19 -3 -43 1 -52 4 -10 8 -29 10 -43 1 -14 12 -45 24 -70 11 -24 21
-51 21 -59 0 -9 9 -27 20 -41 11 -14 20 -33 20 -42 0 -10 14 -33 30 -51 17
-19 30 -44 30 -55 0 -12 8 -27 18 -34 9 -7 23 -25 29 -39 14 -32 151 -189 164
-189 9 0 28 -16 127 -107 25 -24 53 -43 63 -43 9 0 22 -7 29 -15 7 -8 18 -15
25 -15 7 0 39 -13 70 -30 31 -16 65 -30 75 -30 11 0 22 -4 25 -10 3 -5 21 -10
39 -10 19 0 39 -7 46 -15 7 -8 19 -15 26 -15 7 0 25 -25 40 -56 19 -41 34 -59
55 -66 16 -5 29 -14 29 -18 0 -7 39 -7 141 -1 9 1 33 13 54 27 21 14 43 23 50
20 8 -3 26 6 40 20 17 16 37 24 54 23 14 -1 34 1 44 5 9 3 25 9 35 12 9 3 44
6 77 6 35 0 75 7 95 16 22 10 57 16 95 15 132 -3 140 -3 153 14 11 16 13 16
25 -1 9 -12 28 -18 62 -19 28 -1 56 -6 63 -11 7 -4 23 -9 35 -11 55 -7 100
-19 132 -35 19 -10 63 -26 97 -36 40 -12 63 -25 66 -36 2 -10 10 -18 17 -18 7
0 18 -7 25 -15 7 -8 26 -15 42 -15 16 0 31 -6 34 -15 4 -9 17 -21 29 -28 13
-7 38 -32 57 -57 18 -24 45 -47 58 -50 16 -4 26 -14 28 -28 2 -12 13 -30 25
-39 12 -10 30 -30 40 -45 10 -16 24 -28 32 -28 10 0 15 -10 15 -29 0 -19 8
-36 23 -48 12 -10 34 -36 47 -58 13 -22 35 -48 47 -58 16 -13 23 -29 23 -55 1
-39 15 -64 41 -74 10 -4 18 -23 22 -55 3 -26 15 -69 26 -94 12 -26 26 -80 31
-122 6 -41 15 -89 20 -107 6 -22 6 -48 -1 -76 -8 -31 -8 -52 0 -75 16 -46 14
-87 -9 -150 -10 -31 -17 -65 -14 -76 3 -12 1 -31 -6 -43 -9 -18 -8 -25 6 -41
15 -17 16 -21 2 -36 -9 -10 -19 -35 -22 -56 -4 -21 -13 -40 -21 -43 -8 -3 -18
-34 -25 -77 -6 -40 -15 -80 -20 -89 -6 -10 -10 -26 -10 -36 0 -10 -14 -29 -31
-41 -25 -18 -29 -28 -24 -48 3 -14 2 -22 -3 -19 -13 8 -35 -21 -27 -34 11 -18
-4 -60 -22 -60 -22 0 -53 -29 -53 -49 0 -9 -14 -29 -29 -44 -16 -16 -35 -42
-41 -58 -7 -16 -16 -29 -21 -29 -5 0 -14 -11 -19 -25 -5 -14 -23 -34 -40 -43
-16 -9 -30 -23 -30 -29 0 -14 -70 -82 -84 -83 -9 0 -46 -44 -61 -74 -10 -18
-21 -27 -55 -41 -33 -13 -63 -34 -98 -68 -21 -19 -49 -37 -64 -41 -16 -4 -34
-18 -43 -35 -9 -19 -26 -32 -45 -36 -16 -4 -30 -11 -30 -16 0 -5 -8 -13 -17
-16 -10 -4 -25 -16 -34 -26 -8 -11 -28 -21 -44 -23 -15 -2 -37 -11 -49 -22
-11 -10 -29 -22 -38 -25 -9 -3 -18 -18 -20 -34 -3 -26 -7 -28 -60 -34 -37 -4
-69 -15 -90 -30 -18 -13 -74 -44 -125 -69 -54 -27 -96 -54 -102 -66 -6 -14
-22 -23 -50 -28 -23 -3 -41 -11 -41 -17 0 -8 -13 -9 -40 -5 -37 6 -40 5 -46
-21 -3 -16 -17 -62 -30 -103 -14 -41 -27 -97 -29 -124 -3 -27 -12 -57 -20 -66
-8 -9 -15 -24 -15 -32 0 -9 -7 -29 -15 -44 -8 -16 -15 -37 -15 -48 0 -24 -21
-98 -32 -112 -15 -20 -59 -230 -52 -249 2 -5 -10 -19 -26 -30 -30 -19 -60 -89
-60 -137 0 -10 -7 -21 -15 -24 -10 -4 -15 -21 -15 -53 -1 -36 -7 -53 -30 -81
-17 -19 -30 -45 -30 -57 0 -13 -9 -28 -20 -35 -11 -7 -20 -22 -20 -34 0 -11
-9 -31 -20 -44 -13 -15 -20 -37 -20 -63 0 -28 -7 -48 -22 -64 -20 -21 -21 -26
-9 -45 10 -16 11 -23 2 -26 -27 -9 -71 -55 -71 -74 0 -11 -20 -47 -45 -80 -25
-33 -45 -67 -45 -76 0 -8 -6 -23 -14 -31 -22 -26 -66 -114 -66 -133 0 -10 -14
-30 -31 -45 -24 -22 -29 -33 -25 -55 4 -21 2 -28 -10 -28 -9 0 -21 -13 -27
-29 -6 -16 -21 -34 -34 -40 -15 -7 -23 -19 -23 -34 0 -13 -10 -32 -21 -43 -12
-10 -30 -38 -40 -61 -10 -23 -27 -47 -38 -53 -12 -6 -21 -17 -21 -24 0 -7 -9
-21 -20 -31 -11 -10 -20 -23 -20 -30 0 -6 -11 -22 -25 -35 -13 -13 -38 -51
-54 -85 -22 -47 -35 -64 -55 -69 -19 -5 -28 -15 -32 -35 -4 -18 -14 -31 -26
-35 -16 -4 -19 -10 -15 -27 8 -31 -27 -79 -59 -79 -18 0 -32 -12 -54 -49 -17
-27 -42 -56 -55 -65 -26 -17 -34 -51 -12 -59 7 -2 8 -8 3 -13 -5 -5 -11 -4
-13 4 -8 22 -29 13 -64 -30 -19 -23 -55 -62 -81 -86 -27 -25 -48 -51 -48 -59
0 -7 -8 -17 -17 -20 -10 -4 -52 -42 -94 -85 -41 -43 -79 -78 -84 -78 -4 0 -31
-21 -60 -47 -28 -27 -77 -70 -108 -96 -31 -27 -57 -56 -57 -66 0 -14 -10 -21
-36 -25 -19 -4 -43 -16 -52 -27 -9 -11 -42 -35 -73 -53 -30 -18 -67 -45 -82
-60 -14 -14 -32 -26 -40 -26 -8 0 -20 -7 -28 -16 -7 -8 -29 -24 -48 -35 -41
-22 -78 -46 -112 -72 -46 -34 -94 -63 -129 -76 -19 -8 -45 -25 -58 -38 -13
-12 -31 -23 -40 -23 -25 0 -146 -59 -155 -76 -4 -8 -17 -14 -27 -14 -10 0 -22
-5 -25 -10 -3 -6 -14 -10 -23 -10 -9 0 -28 -9 -42 -20 -14 -11 -33 -20 -43
-20 -20 0 -74 -33 -94 -57 -9 -12 -15 -12 -32 -1 -17 10 -25 10 -48 -3 -16 -9
-45 -22 -65 -28 -22 -7 -38 -19 -38 -28 0 -11 -7 -13 -28 -9 -17 4 -35 1 -47
-8 -11 -9 -34 -16 -52 -16 -17 0 -44 -6 -60 -14 -89 -43 -99 -46 -131 -40 -28
6 -34 4 -39 -15 -6 -24 -7 -25 -32 -9 -14 8 -29 8 -64 0 -25 -7 -59 -12 -75
-12 -16 0 -45 -6 -63 -14 -39 -16 -216 -36 -255 -28 -18 3 -30 0 -36 -12 -7
-13 -13 -14 -29 -5 -14 7 -29 8 -47 1 -15 -5 -45 -9 -67 -7 -156 9 -316 7
-330 -5 -12 -10 -21 -10 -38 -2 -43 21 -116 31 -322 47 -84 7 -177 23 -263 47
-40 11 -83 17 -96 14 -12 -3 -31 1 -41 8 -11 8 -25 12 -32 9 -7 -3 -33 4 -58
16 -25 12 -67 24 -93 28 -26 3 -65 14 -86 24 -22 11 -46 19 -54 19 -8 0 -25 9
-39 20 -14 11 -31 20 -37 20 -7 0 -31 9 -54 20 -22 11 -46 20 -52 20 -6 0 -18
7 -26 15 -9 8 -28 15 -43 15 -16 0 -34 7 -41 15 -7 8 -23 15 -35 15 -12 0 -28
7 -35 14 -6 8 -33 22 -60 31 -27 9 -54 23 -60 31 -7 7 -17 14 -23 14 -5 0 -25
11 -43 25 -18 14 -39 23 -46 20 -8 -3 -25 6 -38 20 -13 14 -31 25 -39 25 -9 0
-42 18 -74 40 -34 24 -65 39 -75 36 -23 -7 -39 4 -51 37 -6 16 -18 27 -29 27
-10 0 -35 18 -56 40 -20 22 -45 40 -56 40 -10 0 -22 5 -26 11 -3 6 -30 26 -60
45 -30 19 -86 64 -126 99 -39 36 -80 65 -90 65 -10 0 -22 8 -25 18 -4 9 -22
31 -41 47 -20 17 -53 47 -76 69 -22 21 -56 49 -76 61 -20 13 -51 45 -68 72
-18 27 -43 56 -57 63 -13 7 -27 21 -31 32 -3 10 -9 18 -14 18 -4 0 -45 43 -91
95 -46 52 -91 97 -100 100 -9 3 -19 13 -23 23 -3 9 -35 51 -71 92 -36 41 -65
80 -65 87 0 6 -11 20 -24 30 -13 10 -31 33 -40 51 -9 18 -28 37 -41 42 -14 5
-27 20 -31 34 -3 13 -14 32 -25 42 -10 9 -28 36 -39 60 -12 24 -30 46 -40 49
-10 3 -24 21 -30 39 -6 18 -26 49 -45 68 -19 19 -41 53 -50 77 -8 23 -24 54
-35 68 -11 14 -20 32 -20 39 0 7 -11 21 -25 30 -14 9 -25 26 -25 38 0 11 -16
41 -36 66 -19 24 -38 57 -41 71 -6 32 -59 99 -78 99 -15 0 -25 22 -25 55 0 13
-4 27 -10 30 -5 3 -10 13 -10 21 0 9 -40 98 -90 198 -50 100 -90 187 -90 193
0 7 -13 38 -30 70 -16 31 -30 63 -30 69 0 6 -9 19 -19 28 -11 10 -25 41 -31
69 -6 29 -23 79 -39 112 -16 33 -34 80 -42 105 -7 25 -23 70 -37 100 -13 30
-26 71 -28 90 -3 19 -16 56 -29 82 -14 26 -25 61 -25 76 0 16 -12 60 -26 98
-14 38 -30 87 -34 109 -5 22 -13 53 -19 68 -6 16 -11 39 -11 53 0 13 -4 32 -9
42 -15 30 -31 87 -31 112 0 13 -7 32 -16 42 -10 11 -19 42 -21 80 -3 35 -9 67
-14 73 -5 5 -9 29 -9 52 0 24 -7 57 -15 73 -8 16 -12 36 -9 44 4 9 1 23 -6 31
-6 8 -9 23 -5 34 3 11 -1 33 -9 48 -8 16 -17 62 -20 103 -4 41 -11 98 -17 125
-12 59 -28 157 -32 201 -2 16 -7 35 -11 42 -3 6 -9 58 -11 114 -3 57 -9 137
-15 178 -17 137 -28 436 -22 625 1 28 1 68 1 90 -1 39 8 429 14 656 2 63 7
121 11 128 5 7 10 56 11 109 2 53 8 112 14 130 5 19 13 73 16 120 4 48 9 94
12 102 4 8 7 26 9 40 1 14 5 47 8 73 6 56 35 101 79 124 42 21 99 67 158 126
27 26 52 47 57 47 8 0 14 11 46 79 6 13 21 27 33 32 13 5 23 17 23 28 0 11 14
30 30 43 24 17 30 29 30 58 0 28 6 41 29 57 27 21 41 50 77 168 9 28 19 54 24
58 4 5 5 28 2 53 -3 33 0 49 12 63 12 13 18 44 21 107 3 49 10 101 16 116 8
19 8 32 0 46 -12 23 -5 53 16 65 7 4 13 15 13 23 0 29 34 73 62 83 15 6 28 14
28 19 0 8 97 57 163 81 15 6 27 15 27 21 0 5 9 10 19 10 11 0 34 12 51 27 18
14 40 27 49 28 10 0 24 7 32 14 8 7 32 23 54 35 29 16 39 28 37 42 -2 10 -1
16 3 12 12 -11 115 82 115 103 0 12 7 19 20 19 11 0 20 4 20 8 0 4 22 43 50
87 27 44 50 89 50 102 0 12 5 25 10 28 6 4 8 15 5 26 -4 10 1 29 9 41 9 12 16
38 16 58 0 19 5 52 10 72 7 25 8 44 1 56 -7 14 -6 25 5 41 13 17 16 50 15 149
0 115 10 182 28 182 4 0 16 -7 27 -15 10 -8 27 -15 36 -15 9 0 25 -11 36 -25
11 -14 27 -25 35 -25 9 0 20 -6 24 -13 12 -19 60 -40 72 -32 7 4 23 0 36 -9
13 -9 33 -16 44 -16 11 0 23 -5 26 -10 4 -6 35 -9 75 -6 45 3 70 0 73 -7 2 -8
12 -8 33 1 16 6 41 10 56 8 16 -2 33 3 39 10 6 8 20 14 30 14 10 0 20 4 24 9
3 5 19 12 36 16 46 10 186 83 193 100 3 8 13 15 22 15 9 0 35 15 58 33 23 19
49 36 59 40 9 3 17 11 17 17 0 5 23 21 52 35 53 25 122 33 133 15 3 -5 13 -10
21 -10 17 0 125 -112 136 -142 4 -10 16 -22 26 -26 11 -4 32 -22 47 -39 15
-18 33 -33 40 -33 8 0 22 -10 32 -22 16 -20 56 -45 103 -62 8 -4 30 -15 48
-26 18 -11 38 -18 43 -14 5 3 15 1 22 -4 7 -6 23 -11 37 -11 14 0 72 -2 130
-4 85 -3 112 0 140 14 19 10 53 21 75 25 22 3 54 17 72 30 17 13 38 22 45 19
8 -3 27 6 42 20 15 14 31 25 37 25 5 0 38 21 72 48 34 26 77 55 95 65 17 10
47 31 64 48 18 16 38 29 46 29 7 0 15 7 18 15 4 8 15 15 26 15 11 0 22 8 25
19 8 30 93 50 201 47 60 -2 98 -8 110 -17z m2402 -10289 c0 -5 -5 -10 -11 -10
-5 0 -7 5 -4 10 3 6 8 10 11 10 2 0 4 -4 4 -10z"/>
<path d="M9088 9259 c-7 -5 -30 -6 -52 -2 -33 5 -41 2 -56 -17 -16 -21 -18
-22 -41 -7 -29 19 -98 13 -106 -9 -6 -16 -51 -18 -88 -4 -21 8 -39 5 -89 -15
-34 -14 -69 -25 -78 -25 -8 0 -23 -9 -33 -20 -13 -15 -22 -17 -36 -10 -25 14
-95 -3 -123 -29 -12 -12 -27 -21 -33 -21 -6 0 -20 -16 -32 -35 -11 -19 -26
-35 -33 -35 -7 -1 -24 -23 -37 -51 l-25 -50 27 -24 c14 -14 30 -41 36 -60 11
-41 48 -85 73 -85 9 0 20 -5 24 -11 3 -6 17 -8 32 -4 14 3 38 1 54 -6 22 -9
32 -9 41 0 6 6 21 11 33 11 13 0 25 4 28 9 3 4 25 11 48 14 24 3 54 9 68 12
14 4 54 9 90 12 42 4 73 12 89 24 18 14 33 18 58 13 21 -4 39 -2 49 7 14 11
18 10 30 -6 12 -17 25 -19 97 -16 59 2 87 7 100 19 18 16 20 15 33 -3 12 -16
29 -20 86 -23 41 -1 76 2 84 9 14 12 84 -5 84 -21 0 -4 26 -11 58 -14 112 -11
157 -17 177 -26 11 -5 36 -11 55 -14 56 -8 121 -23 174 -40 27 -9 58 -16 68
-16 11 0 26 -7 34 -15 9 -8 29 -15 45 -15 30 0 55 -10 139 -55 59 -31 78 -31
91 2 l10 27 12 -24 c22 -45 43 -41 225 46 50 24 92 48 92 54 0 14 -44 82 -64
99 -9 7 -16 22 -16 31 0 20 -85 100 -105 100 -7 0 -15 9 -18 20 -3 10 -22 27
-43 36 -22 9 -57 25 -79 35 -22 10 -51 19 -63 19 -14 0 -36 13 -52 30 -22 23
-37 30 -67 30 -21 0 -43 4 -48 9 -11 9 -107 41 -127 41 -7 0 -24 6 -38 13 -30
16 -78 27 -135 33 -22 2 -51 6 -65 10 -31 7 -128 16 -195 18 -27 0 -57 5 -65
11 -22 14 -382 26 -402 14z"/>
<path d="M5680 9097 c-3 -3 -59 -6 -125 -8 -66 -1 -134 -6 -150 -12 -20 -6
-43 -6 -67 1 -31 8 -41 7 -60 -7 -35 -27 -57 -32 -81 -19 -26 14 -85 12 -104
-3 -7 -7 -29 -8 -52 -4 -31 5 -54 0 -108 -23 -42 -17 -77 -26 -88 -22 -11 4
-31 3 -45 -1 -14 -4 -45 -13 -70 -20 -25 -6 -54 -15 -65 -19 -11 -5 -38 -12
-60 -15 -22 -4 -67 -18 -99 -31 -33 -13 -69 -24 -80 -24 -25 0 -100 -36 -116
-56 -7 -7 -20 -14 -30 -14 -24 0 -110 -39 -110 -50 0 -5 -17 -14 -38 -20 -24
-6 -44 -19 -52 -35 -10 -19 -19 -23 -36 -19 -17 4 -29 -2 -51 -26 -15 -18 -49
-43 -75 -56 -27 -13 -49 -29 -49 -34 -1 -6 -2 -16 -3 -22 -1 -7 -10 -18 -21
-23 -11 -6 -21 -22 -23 -35 -2 -14 -12 -63 -24 -109 -18 -77 -19 -86 -4 -96 9
-7 16 -19 16 -28 0 -34 44 -31 55 4 9 27 25 24 25 -4 0 -25 28 -57 48 -57 7 0
12 -7 12 -15 0 -8 7 -15 15 -15 8 0 24 -6 36 -12 17 -11 22 -10 30 5 6 9 18
17 27 17 10 0 28 7 40 16 12 8 26 12 32 9 11 -7 48 13 71 38 9 9 23 17 31 17
8 0 24 9 36 20 12 11 26 20 32 20 5 0 10 7 10 15 0 8 9 15 20 15 11 0 20 5 20
11 0 6 8 8 19 4 11 -3 22 -1 26 5 3 5 15 10 25 10 34 0 128 47 140 70 8 15 18
20 31 17 15 -4 19 0 19 19 0 28 8 30 36 9 11 -8 41 -15 70 -15 42 0 56 5 77
26 21 21 31 24 61 18 32 -6 36 -4 36 15 0 29 24 36 52 17 29 -21 56 -20 93 3
27 16 80 31 110 31 24 0 81 -13 91 -21 14 -12 41 -2 48 17 4 10 14 12 31 8 18
-4 27 -2 31 10 6 17 35 22 48 9 4 -5 115 -8 246 -8 l239 0 -6 23 c-7 30 8 28
45 -8 35 -33 66 -39 76 -15 4 12 14 14 39 10 25 -5 44 -1 73 16 52 30 124 100
124 121 0 9 5 20 10 23 6 3 10 29 10 57 0 49 -2 53 -67 118 -46 46 -92 80
-143 105 -70 35 -76 37 -100 23 -23 -13 -29 -13 -50 1 -14 9 -49 17 -84 18
-34 1 -75 5 -91 8 -17 4 -32 4 -35 2z"/>
<path d="M9033 8236 c-13 -7 -31 -20 -41 -29 -10 -10 -26 -17 -35 -17 -25 0
-86 -40 -92 -61 -4 -10 -12 -19 -20 -19 -7 0 -31 -21 -52 -46 -21 -25 -54 -65
-74 -87 -20 -23 -46 -60 -58 -82 -12 -22 -40 -71 -61 -110 -21 -38 -39 -77
-39 -85 -1 -9 -12 -32 -26 -52 -14 -20 -25 -43 -25 -50 0 -7 -9 -24 -20 -38
-11 -14 -20 -35 -20 -47 0 -12 -4 -25 -10 -28 -5 -3 -10 -23 -10 -43 0 -21 -9
-48 -20 -62 -11 -14 -20 -39 -20 -57 0 -30 -8 -57 -33 -111 -11 -23 -14 -47
-23 -196 l-6 -90 31 -27 c44 -38 142 -48 204 -21 38 17 47 27 62 68 9 27 22
58 28 69 5 11 11 40 12 65 1 25 7 56 12 70 19 45 33 96 33 116 0 10 9 43 20
72 11 29 20 65 20 81 0 16 7 34 15 41 9 7 13 21 10 31 -3 10 -2 26 3 36 5 10
14 29 20 43 5 14 19 46 31 72 12 26 21 50 21 54 0 3 15 24 33 47 18 23 42 61
53 84 10 24 26 43 35 43 8 0 25 13 37 30 32 43 111 80 170 80 44 0 51 -4 94
-47 33 -34 49 -59 54 -88 4 -22 15 -52 25 -67 11 -14 19 -34 19 -44 0 -10 10
-28 22 -41 16 -18 21 -34 19 -65 -1 -29 4 -47 17 -62 11 -11 22 -35 25 -52 3
-18 22 -72 42 -121 19 -50 35 -100 35 -111 0 -11 4 -23 9 -26 4 -3 12 -29 15
-58 4 -29 11 -82 16 -118 18 -142 23 -160 46 -185 40 -44 150 -29 200 27 40
44 59 108 35 122 -11 7 -19 65 -26 181 -3 50 -9 97 -12 105 -4 8 -12 44 -19
80 -7 36 -20 97 -28 135 -9 39 -20 90 -25 113 -5 24 -14 49 -20 55 -6 6 -11
27 -11 47 0 23 -9 49 -26 71 -14 19 -41 65 -61 102 -62 117 -276 297 -353 297
-10 0 -22 5 -25 10 -8 13 -111 13 -137 -1 -14 -8 -23 -8 -31 0 -14 14 -36 13
-64 -3z"/>
<path d="M5555 8097 c-76 -26 -115 -49 -172 -99 -24 -21 -48 -38 -55 -38 -7
-1 -22 -8 -33 -18 -25 -21 -85 -107 -85 -121 0 -6 -4 -11 -10 -11 -5 0 -10 -6
-10 -14 0 -7 -13 -27 -30 -44 -16 -18 -30 -39 -30 -47 0 -9 -8 -28 -18 -43
-63 -92 -73 -112 -68 -130 4 -11 1 -24 -7 -31 -8 -6 -22 -30 -32 -53 -10 -24
-30 -70 -46 -103 -15 -33 -40 -96 -55 -140 -14 -44 -31 -85 -36 -92 -16 -20
-21 -172 -7 -189 23 -28 88 -54 135 -54 64 0 134 48 134 92 0 25 22 93 33 104
4 4 7 20 7 35 0 15 5 31 10 34 6 3 10 19 10 35 0 16 5 32 11 35 5 4 22 32 35
63 14 32 34 75 45 98 10 22 19 45 19 50 0 5 18 36 40 69 22 33 40 65 40 71 0
6 6 17 14 23 8 7 23 31 35 54 11 23 43 67 70 97 28 30 51 61 51 68 0 6 5 12
10 12 6 0 10 8 10 19 0 15 10 19 53 24 61 5 99 -6 91 -27 -4 -9 5 -20 23 -29
63 -33 124 -123 197 -287 33 -77 35 -83 40 -145 4 -61 26 -144 51 -201 16 -34
34 -123 42 -201 3 -29 11 -57 18 -63 8 -6 44 -16 80 -21 60 -8 71 -7 104 12
52 29 74 91 61 169 -12 77 -20 112 -29 135 -22 56 -31 96 -31 143 0 28 -4 53
-9 56 -4 3 -11 31 -15 63 -8 70 -30 130 -73 202 -18 30 -33 60 -33 67 0 7 -10
25 -23 41 -13 15 -29 42 -36 59 -18 47 -126 144 -223 203 -122 73 -223 96
-303 68z"/>
<path d="M6983 7692 c-12 -9 -33 -34 -47 -55 -23 -33 -26 -48 -26 -121 0 -62
4 -87 15 -96 17 -14 20 -46 6 -54 -15 -9 -19 -80 -6 -101 9 -15 10 -39 3 -90
-11 -87 -12 -126 -3 -191 6 -41 4 -54 -11 -68 -14 -14 -18 -36 -20 -95 -1 -42
-6 -105 -11 -139 -8 -51 -7 -65 4 -69 19 -8 16 -29 -8 -44 -17 -12 -22 -28
-26 -97 -3 -45 -9 -82 -13 -82 -13 0 -21 -33 -11 -40 7 -4 6 -14 -2 -30 -18
-34 -35 -104 -41 -170 -4 -30 -19 -82 -35 -115 -16 -33 -25 -64 -21 -70 5 -6
2 -21 -5 -35 -8 -14 -14 -38 -15 -53 0 -16 -8 -41 -19 -55 -31 -45 -61 -123
-61 -158 0 -35 -45 -182 -61 -198 -5 -6 -9 -20 -9 -33 0 -12 -9 -46 -20 -74
-21 -53 -42 -136 -61 -243 -9 -51 -8 -61 8 -78 14 -15 15 -22 5 -36 -26 -36
-30 -59 -20 -98 12 -50 19 -89 22 -139 1 -22 10 -57 19 -77 10 -21 17 -44 17
-51 0 -8 7 -20 15 -27 8 -7 15 -19 15 -26 0 -21 50 -95 83 -122 15 -13 27 -32
27 -43 0 -11 22 -34 53 -57 28 -21 58 -47 66 -56 8 -9 30 -24 49 -32 20 -8 72
-38 116 -68 129 -85 135 -87 222 -64 53 14 92 58 113 124 12 37 11 48 -8 100
-11 32 -28 63 -38 68 -23 15 -72 43 -165 94 -155 86 -243 209 -264 367 -11 87
-11 92 12 138 13 27 24 58 24 68 0 11 5 29 11 40 6 11 12 46 13 77 2 31 6 64
9 72 3 8 13 35 21 60 35 104 48 135 66 161 11 15 27 56 36 90 9 35 22 69 29
74 7 6 15 31 18 55 13 96 19 126 38 166 10 22 19 53 19 68 0 16 9 44 21 63 12
20 19 43 16 56 -3 12 1 40 9 62 7 22 14 48 14 58 0 9 4 25 9 35 5 9 14 42 19
72 6 30 16 84 23 120 6 36 18 119 25 185 7 66 18 156 24 200 6 44 11 99 11
122 1 24 4 45 8 47 4 3 6 22 4 43 -2 21 -3 98 -2 171 0 85 -4 138 -11 147 -8
10 -8 19 0 34 9 17 6 29 -16 66 -14 25 -30 48 -35 51 -5 3 -9 20 -9 39 0 20
-9 44 -24 62 -12 15 -28 38 -35 51 -29 55 -131 81 -178 44z"/>
<path d="M9022 7220 c-19 -8 -64 -45 -124 -102 -10 -10 -18 -24 -18 -31 0 -6
-12 -34 -26 -61 -25 -47 -26 -55 -25 -199 l2 -150 29 -36 c17 -20 30 -47 30
-62 0 -22 12 -35 60 -68 53 -36 66 -41 117 -41 103 0 172 42 212 127 7 15 18
37 24 48 47 88 49 98 52 236 3 127 1 141 -22 195 -37 88 -36 87 -87 118 -39
25 -59 30 -124 33 -42 1 -87 -1 -100 -7z"/>
<path d="M5492 7135 c-78 -41 -112 -84 -142 -180 -7 -22 -21 -51 -31 -64 -14
-17 -19 -40 -19 -82 0 -33 -5 -68 -12 -78 -15 -25 21 -138 63 -195 16 -22 29
-46 29 -53 0 -25 99 -63 166 -63 57 0 66 3 109 38 124 100 136 114 145 172 5
30 13 75 20 99 7 30 8 53 1 72 -6 17 -6 41 -1 59 13 46 -7 147 -39 200 -56 91
-192 127 -289 75z"/>
<path d="M8533 2970 c-18 -10 -57 -26 -87 -35 -30 -9 -71 -27 -91 -41 -20 -13
-43 -24 -51 -24 -8 0 -39 -11 -67 -24 -29 -13 -79 -31 -112 -41 -33 -9 -68
-21 -77 -26 -10 -5 -26 -9 -36 -9 -10 0 -22 -3 -25 -6 -4 -4 -33 -8 -66 -10
-33 -1 -70 -8 -81 -14 -49 -26 -446 -39 -630 -21 -184 18 -272 40 -415 101
-24 11 -113 21 -175 20 -39 0 -50 -6 -87 -42 -38 -37 -43 -48 -43 -86 0 -57
33 -117 76 -137 18 -9 36 -20 39 -25 10 -16 133 -72 144 -66 5 3 20 -5 32 -19
17 -17 31 -22 47 -18 13 3 22 1 22 -6 0 -6 13 -11 29 -11 17 0 33 -4 36 -10 3
-5 18 -10 33 -10 15 0 50 -8 78 -19 49 -18 129 -32 204 -36 19 -1 70 -8 113
-15 60 -10 83 -10 100 -1 18 9 30 9 59 -4 29 -11 43 -12 61 -4 18 8 30 8 46 0
14 -8 27 -8 39 -2 9 5 28 9 42 10 14 0 68 5 120 11 52 6 118 11 146 10 44 -1
52 2 64 25 13 24 18 25 95 25 61 0 86 4 95 15 7 8 28 15 46 15 19 0 34 5 34
11 0 7 10 9 24 5 20 -5 30 1 50 26 20 26 31 32 61 31 21 -1 38 4 41 12 3 7 26
21 52 30 26 10 58 27 72 37 14 11 41 29 60 41 19 12 45 38 58 57 13 19 31 39
42 44 23 11 33 84 14 107 -11 12 -11 18 -1 28 9 11 9 14 0 18 -7 3 -13 14 -13
26 -1 40 -22 54 -90 61 -36 4 -72 9 -80 12 -8 2 -29 -5 -47 -16z"/>
<path d="M1050 6500 c0 -11 5 -20 10 -20 6 0 10 9 10 20 0 11 -4 20 -10 20 -5
0 -10 -9 -10 -20z"/>
</g>
</svg>
